<svg width="33" height="33" viewBox="0 0 33 33" fill="none" xmlns="http://www.w3.org/2000/svg">
<path d="M5.35251 20.9487H8.85251C9.19001 20.9487 9.41501 21.2162 9.41501 21.6187V29.6537C9.41501 30.0562 9.19001 30.3237 8.85251 30.3237H5.35251" stroke="white" stroke-width="2" stroke-linecap="round" stroke-linejoin="round"/>
<path d="M18.4175 19.5375H13.9775L12.4213 21.725C12.2646 21.9189 12.0682 22.077 11.8452 22.1885C11.6222 22.3 11.3779 22.3623 11.1288 22.3712H9.41501" stroke="white" stroke-width="2" stroke-linecap="round" stroke-linejoin="round"/>
<path d="M9.41501 27.9912C11.9675 29.3725 13.5 30.3237 15.0325 30.3237H20.2275C21.5275 30.3237 21.7663 30.2512 22.1775 28.9175C22.8275 26.8087 23.4775 23.2925 23.4775 23.2925C23.4775 22.59 22.8275 21.8862 21.5288 21.8862L18.4175 21.9112" stroke="white" stroke-width="2" stroke-linecap="round" stroke-linejoin="round"/>
<path d="M18.4212 14.445C17.0537 16.0625 11.7375 17.2537 11.0362 16.095C11.4829 14.6521 12.3351 13.3682 13.4912 12.3962C9.64499 10.345 9.34499 8.52123 9.30624 7.80498C10.3859 7.48448 11.5197 7.38889 12.6378 7.52413C13.7558 7.65937 14.8342 8.02256 15.8062 8.59123C15.7439 7.39362 15.9516 6.19732 16.414 5.09081C16.8764 3.98431 17.5816 2.99591 18.4775 2.19873C19.3741 2.99555 20.08 3.98379 20.5431 5.09032C21.0061 6.19684 21.2144 7.39333 21.1525 8.59123C22.1246 8.02262 23.203 7.65948 24.321 7.52424C25.439 7.389 26.5729 7.48455 27.6525 7.80498C27.6137 8.52623 27.3137 10.345 23.4687 12.3962C24.6248 13.3682 25.477 14.6521 25.9237 16.095C25.2212 17.2537 19.7987 16.0625 18.4237 14.445" stroke="white" stroke-width="2" stroke-linecap="round" stroke-linejoin="round"/>
<path d="M18.4213 14.445V21.9113" stroke="white" stroke-width="2" stroke-linecap="round" stroke-linejoin="round"/>
</svg>
