<svg width="32" height="32" viewBox="0 0 32 32" fill="none" xmlns="http://www.w3.org/2000/svg">
<path d="M5.22021 21.605H14.5952C15.0925 21.605 15.5694 21.8025 15.921 22.1542C16.2727 22.5058 16.4702 22.9827 16.4702 23.48C16.4702 23.9773 16.2727 24.4542 15.921 24.8058C15.5694 25.1574 15.0925 25.355 14.5952 25.355H11.4702" stroke="#0BB257" stroke-width="2" stroke-linecap="round" stroke-linejoin="round"/>
<path d="M5.22021 27.855L12.529 29.6825C14.2656 30.1166 16.1003 29.9154 17.7015 29.115L24.5765 25.675C24.8167 25.5544 25.0295 25.3855 25.2015 25.179C25.3736 24.9725 25.5013 24.7328 25.5766 24.4747C25.6519 24.2167 25.6732 23.9459 25.6392 23.6793C25.6052 23.4126 25.5166 23.1559 25.379 22.925C25.154 22.5507 24.8103 22.2625 24.4025 22.1062C23.9948 21.9499 23.5465 21.9345 23.129 22.0625L16.4677 24.1112" stroke="#0BB257" stroke-width="2" stroke-linecap="round" stroke-linejoin="round"/>
<path d="M18.3752 14.34C17.0064 15.9575 12.0977 17.1487 11.3964 15.99C11.8431 14.5472 12.6953 13.2632 13.8514 12.2913C10.0002 10.24 9.70016 8.42125 9.66016 7.7C10.669 7.36556 11.7401 7.26258 12.7942 7.39869C13.8483 7.53481 14.8581 7.90652 15.7489 8.48625C15.687 7.28835 15.8953 6.09186 16.3583 4.98534C16.8214 3.87881 17.5273 2.89057 18.4239 2.09375C19.3207 2.89045 20.0269 3.87864 20.4902 4.98517C20.9534 6.0917 21.1619 7.28825 21.1002 8.48625C21.9067 7.89287 22.8486 7.51019 23.8405 7.37289C24.8323 7.2356 25.8427 7.34803 26.7802 7.7C26.7402 8.42125 26.4414 10.24 22.5952 12.2913C23.7513 13.2632 24.6035 14.5472 25.0502 15.99C24.3489 17.1487 19.7377 15.9575 18.3689 14.34" stroke="#0BB257" stroke-width="2" stroke-linecap="round" stroke-linejoin="round"/>
<path d="M18.3687 14.34V18.7387" stroke="#0BB257" stroke-width="2" stroke-linecap="round" stroke-linejoin="round"/>
</svg>
