<svg width="32" height="32" viewBox="0 0 32 32" fill="none" xmlns="http://www.w3.org/2000/svg">
<path d="M5.21997 21.605H14.595C15.0923 21.605 15.5692 21.8025 15.9208 22.1542C16.2724 22.5058 16.47 22.9827 16.47 23.48C16.47 23.9773 16.2724 24.4542 15.9208 24.8058C15.5692 25.1574 15.0923 25.355 14.595 25.355H11.47" stroke="#C900A5" stroke-width="2" stroke-linecap="round" stroke-linejoin="round"/>
<path d="M5.21997 27.855L12.5287 29.6825C14.2654 30.1166 16.1 29.9154 17.7012 29.115L24.5762 25.675C24.8164 25.5544 25.0292 25.3855 25.2013 25.179C25.3734 24.9725 25.501 24.7328 25.5763 24.4747C25.6516 24.2167 25.673 23.9459 25.639 23.6793C25.605 23.4126 25.5164 23.1559 25.3787 22.925C25.1537 22.5507 24.81 22.2625 24.4023 22.1062C23.9945 21.9499 23.5462 21.9345 23.1287 22.0625L16.4675 24.1112" stroke="#C900A5" stroke-width="2" stroke-linecap="round" stroke-linejoin="round"/>
<path d="M18.375 14.34C17.0063 15.9575 12.0975 17.1487 11.3963 15.99C11.843 14.5472 12.6952 13.2632 13.8513 12.2913C10 10.24 9.70003 8.42125 9.66003 7.7C10.6689 7.36556 11.74 7.26258 12.7941 7.39869C13.8481 7.53481 14.858 7.90652 15.7488 8.48625C15.6869 7.28835 15.8952 6.09186 16.3582 4.98534C16.8213 3.87881 17.5272 2.89057 18.4238 2.09375C19.3206 2.89045 20.0268 3.87864 20.49 4.98517C20.9533 6.0917 21.1618 7.28825 21.1 8.48625C21.9066 7.89287 22.8485 7.51019 23.8403 7.37289C24.8322 7.2356 25.8426 7.34803 26.78 7.7C26.74 8.42125 26.4413 10.24 22.595 12.2913C23.7511 13.2632 24.6033 14.5472 25.05 15.99C24.3488 17.1487 19.7375 15.9575 18.3688 14.34" stroke="#C900A5" stroke-width="2" stroke-linecap="round" stroke-linejoin="round"/>
<path d="M18.3688 14.34V18.7387" stroke="#C900A5" stroke-width="2" stroke-linecap="round" stroke-linejoin="round"/>
</svg>
