<svg width="32" height="32" viewBox="0 0 32 32" fill="none" xmlns="http://www.w3.org/2000/svg">
<g clip-path="url(#clip0_125_94)">
<path d="M1.9375 14.75C1.9375 18.1481 3.28738 21.407 5.69019 23.8098C8.093 26.2126 11.3519 27.5625 14.75 27.5625C18.1481 27.5625 21.407 26.2126 23.8098 23.8098C26.2126 21.407 27.5625 18.1481 27.5625 14.75C27.5625 11.3519 26.2126 8.093 23.8098 5.69019C21.407 3.28738 18.1481 1.9375 14.75 1.9375C11.3519 1.9375 8.093 3.28738 5.69019 5.69019C3.28738 8.093 1.9375 11.3519 1.9375 14.75Z" stroke="white" stroke-width="2" stroke-linecap="round" stroke-linejoin="round"/>
<path d="M23.81 23.81L30.0625 30.0625" stroke="white" stroke-width="2" stroke-linecap="round" stroke-linejoin="round"/>
<path d="M14.8988 18.3012C13.5238 19.9187 8.62125 21.11 7.92 19.9512C8.36627 18.5075 9.2185 17.2226 10.375 16.25C6.52875 14.2 6.23 12.375 6.19 11.66C7.1987 11.3252 8.26986 11.2219 9.32394 11.3578C10.378 11.4937 11.388 11.8653 12.2788 12.445C12.2169 11.2471 12.4252 10.0506 12.8882 8.94408C13.3512 7.83756 14.0572 6.84932 14.9538 6.0525C15.85 6.84994 16.5554 7.83875 17.0178 8.94572C17.4802 10.0527 17.6877 11.2495 17.625 12.4475C18.4316 11.8541 19.3735 11.4715 20.3654 11.3345C21.3573 11.1974 22.3677 11.3101 23.305 11.6625C23.265 12.3837 22.9663 14.2025 19.12 16.2525C20.2761 17.2245 21.1283 18.5084 21.575 19.9512C20.8738 21.11 16.2625 19.9187 14.8938 18.3012" stroke="white" stroke-width="2" stroke-linecap="round" stroke-linejoin="round"/>
<path d="M14.8988 18.3013V22.7013" stroke="white" stroke-width="2" stroke-linecap="round" stroke-linejoin="round"/>
</g>
<defs>
<clipPath id="clip0_125_94">
<rect width="32" height="32" fill="white"/>
</clipPath>
</defs>
</svg>
