<?xml version="1.0" standalone="no"?>
<!DOCTYPE svg PUBLIC "-//W3C//DTD SVG 20010904//EN"
 "http://www.w3.org/TR/2001/REC-SVG-20010904/DTD/svg10.dtd">
<svg version="1.0" xmlns="http://www.w3.org/2000/svg"
 width="260.000000pt" height="260.000000pt" viewBox="0 0 260.000000 260.000000"
 preserveAspectRatio="xMidYMid meet">
<metadata>
Created by potrace 1.14, written by Peter Selinger 2001-2017
</metadata>
<g transform="translate(0.000000,260.000000) scale(0.100000,-0.100000)"
fill="#000000" stroke="none">
<path d="M0 1300 l0 -1300 1300 0 1300 0 0 1300 0 1300 -1300 0 -1300 0 0
-1300z m1397 1135 c140 -146 223 -352 223 -550 0 -41 2 -75 5 -75 3 0 33 22
67 50 106 86 270 156 419 180 97 16 127 11 152 -22 18 -24 19 -32 8 -110 -26
-175 -101 -346 -212 -476 l-56 -67 86 -17 c124 -25 254 -92 343 -177 94 -89
94 -103 2 -191 -121 -115 -272 -178 -444 -187 l-105 -5 40 -82 c35 -72 40 -90
43 -171 4 -98 -4 -119 -48 -130 -18 -4 -34 0 -51 14 -23 17 -27 30 -32 95 -8
112 -38 167 -151 284 -102 105 -115 134 -79 174 22 24 41 23 142 -11 47 -16
115 -32 151 -36 128 -12 289 34 400 115 l44 33 -34 29 c-54 45 -167 97 -250
114 -84 18 -185 13 -269 -12 -58 -17 -98 -5 -107 33 -11 44 4 69 67 108 180
111 299 264 359 462 31 103 30 105 -57 83 -166 -43 -314 -144 -452 -310 -87
-104 -114 -121 -156 -102 -38 17 -41 54 -12 130 42 107 50 150 50 262 0 117
-17 199 -64 296 -30 63 -106 174 -120 174 -14 0 -98 -125 -124 -183 -80 -182
-80 -392 0 -574 31 -69 31 -97 3 -117 -49 -35 -72 -23 -152 78 -88 111 -159
184 -221 226 -65 45 -186 100 -263 120 -64 17 -67 17 -70 0 -5 -30 56 -199 94
-262 75 -123 176 -223 297 -292 49 -29 64 -57 53 -99 -10 -40 -48 -50 -114
-30 -83 25 -227 23 -317 -5 -70 -21 -173 -77 -209 -112 -18 -18 -17 -19 25
-50 24 -18 71 -45 104 -60 135 -61 250 -68 410 -25 55 15 113 30 128 33 37 6
67 -22 67 -61 0 -25 -17 -48 -95 -127 -112 -115 -142 -171 -153 -286 -6 -68
-10 -79 -34 -97 -24 -18 -30 -18 -57 -7 -39 16 -45 38 -39 141 4 67 11 91 44
159 l40 80 -73 0 c-169 0 -349 71 -473 187 -97 91 -97 104 -2 194 89 85 219
152 343 177 l86 18 -48 54 c-109 124 -195 313 -219 486 -12 81 -11 88 8 113
18 24 24 26 93 24 151 -4 350 -80 477 -183 34 -27 64 -50 66 -50 2 0 6 48 9
108 9 172 60 314 161 448 67 90 119 134 158 134 27 0 43 -11 95 -65z"/>
</g>
</svg>
