<svg width="101" height="112" viewBox="0 0 101 112" fill="none" xmlns="http://www.w3.org/2000/svg">
<path d="M4.38565 70.7273H11.7915L18.9226 84.1953H19.228L26.359 70.7273H33.7649L22.3583 90.9446V102H15.7923V90.9446L4.38565 70.7273ZM37.3762 102V70.7273H58.4487V76.1786H43.9881V83.6303H57.3645V89.0817H43.9881V96.5487H58.5098V102H37.3762ZM80.6702 79.7212C80.548 78.4895 80.0238 77.5326 79.0974 76.8505C78.171 76.1684 76.9138 75.8274 75.3257 75.8274C74.2467 75.8274 73.3356 75.9801 72.5924 76.2855C71.8493 76.5807 71.2792 76.993 70.8822 77.5224C70.4954 78.0517 70.3019 78.6523 70.3019 79.3242C70.2816 79.8841 70.3986 80.3728 70.6531 80.7901C70.9178 81.2075 71.2792 81.5689 71.7373 81.8743C72.1954 82.1695 72.7248 82.4291 73.3254 82.6531C73.926 82.8668 74.5673 83.0501 75.2494 83.2028L78.059 83.8746C79.4231 84.18 80.6753 84.5872 81.8154 85.0962C82.9556 85.6052 83.943 86.2313 84.7778 86.9744C85.6125 87.7176 86.259 88.593 86.7171 89.6009C87.1853 90.6087 87.4246 91.7641 87.4347 93.0671C87.4246 94.9809 86.9359 96.6403 85.9688 98.0451C85.0119 99.4397 83.6275 100.524 81.8154 101.298C80.0136 102.061 77.8402 102.443 75.2952 102.443C72.7706 102.443 70.5717 102.056 68.6986 101.282C66.8357 100.509 65.3799 99.3634 64.3314 97.8466C63.2931 96.3196 62.7484 94.4312 62.6975 92.1815H69.0956C69.1669 93.23 69.4672 94.1055 69.9965 94.8079C70.5361 95.5001 71.2538 96.0244 72.1496 96.3807C73.0556 96.7268 74.0787 96.8999 75.2188 96.8999C76.3386 96.8999 77.3108 96.737 78.1354 96.4112C78.9701 96.0855 79.6166 95.6325 80.0747 95.0522C80.5328 94.4719 80.7618 93.8052 80.7618 93.0518C80.7618 92.3494 80.5531 91.759 80.1357 91.2805C79.7285 90.8021 79.1279 90.3949 78.3339 90.0589C77.55 89.723 76.588 89.4176 75.4479 89.1428L72.0427 88.2876C69.4061 87.6463 67.3243 86.6436 65.7973 85.2795C64.2703 83.9154 63.5119 82.0779 63.5221 79.767C63.5119 77.8736 64.0158 76.2193 65.0338 74.8043C66.062 73.3893 67.4719 72.2848 69.2636 71.4908C71.0552 70.6967 73.0912 70.2997 75.3715 70.2997C77.6926 70.2997 79.7184 70.6967 81.449 71.4908C83.1897 72.2848 84.5437 73.3893 85.5107 74.8043C86.4778 76.2193 86.9767 77.8583 87.0072 79.7212H80.6702Z" fill="#0BB257"/>
<path d="M48.1996 48.4949L56.5946 60.2463C56.9402 60.7301 57.3921 61.1283 57.9156 61.4101C58.4391 61.692 59.0202 61.8501 59.6144 61.8722C60.2085 61.8944 60.7998 61.78 61.3429 61.5379C61.8859 61.2958 62.3662 60.9324 62.7469 60.4757L90.2511 27.4666" stroke="#0BB257" stroke-width="5.09715" stroke-linecap="round" stroke-linejoin="round"/>
<path d="M44.0369 3C40.3981 6.1853 37.9478 10.5109 37.0866 15.2696C36.2254 20.0282 37.0042 24.9382 39.2958 29.1968C37.7728 27.1346 36.1351 25.1596 34.3904 23.2813C30.0452 18.8575 24.1997 16.2228 18.0074 15.897C18.3426 22.0564 21.0002 27.8597 25.4444 32.1374C27.1976 33.8335 29.1793 35.2758 31.332 36.423C29.4842 35.7974 27.55 35.4637 25.5993 35.4346C22.9414 35.4311 20.3125 35.987 17.8834 37.0661C15.4544 38.1449 13.2795 39.7228 11.5 41.6972C13.2808 43.6694 15.4561 45.2454 17.8849 46.3232C20.3138 47.4011 22.942 47.9566 25.5993 47.9534C28.4416 47.6489 31.2346 46.99 33.9132 45.992C33.9132 45.992 31.4342 48.3965 30.2784 49.5555C29.0509 50.7654 28.0954 52.2233 27.4755 53.8316C26.8557 55.44 26.5858 57.1618 26.6839 58.8827C31.2676 59.4737 35.9104 58.3886 39.7575 55.8276" stroke="#C900A5" stroke-width="5.07068" stroke-linecap="round" stroke-linejoin="round"/>
<path d="M44.037 3C47.6755 6.1853 50.1259 10.5109 50.987 15.2696C51.8484 20.0282 51.0694 24.9382 48.7781 29.1968C50.3009 27.1346 51.9387 25.1596 53.6833 23.2813C58.0286 18.8575 63.8741 16.2228 70.0664 15.897C69.7311 22.0564 67.0737 27.8597 62.6293 32.1374C60.8761 33.8335 58.8944 35.2758 56.7419 36.423C58.5927 35.7965 60.53 35.4628 62.4838 35.4346C65.1402 35.4327 67.7671 35.9889 70.1944 37.068" stroke="#C900A5" stroke-width="5.07068" stroke-linecap="round" stroke-linejoin="round"/>
</svg>
