<svg width="124" height="120" viewBox="0 0 124 120" fill="none" xmlns="http://www.w3.org/2000/svg">
<path d="M93.4667 105C93.6449 101.864 93.1578 98.7261 92.0378 95.7944C90.9179 92.8626 89.1907 90.2044 86.971 87.9962C84.8414 85.87 80.3574 81.4594 80.3574 81.4594C87.0534 84.798 94.6515 85.8387 101.991 84.4224C109.33 83.0061 116.006 79.2108 121 73.6163C117.773 70.0143 113.829 67.1354 109.424 65.1666C105.02 63.1978 100.253 62.183 95.4333 62.188C91.8883 62.2415 88.3733 62.852 85.0156 63.9976C88.9283 61.9057 92.5297 59.2713 95.7143 56.1714C103.772 48.3668 108.591 37.7787 109.2 26.5406C97.972 27.1336 87.3724 31.9395 79.4921 40.0102C76.3735 43.1203 71.1984 49.6572 71.1984 49.6572C73.8396 44.3001 75.2165 38.4018 75.2216 32.4215C75.2169 26.8544 74.0356 21.3519 71.7561 16.2793C69.4765 11.2068 66.1509 6.68017 62 3C55.4018 8.81267 50.9586 16.7063 49.3969 25.3901C47.8353 34.0738 49.2476 43.0339 53.4029 50.8051C50.6387 47.0439 47.6692 43.44 44.5079 40.0102C36.6276 31.9395 26.028 27.1336 14.8 26.5406C15.4088 37.7787 20.2277 48.3668 28.2857 56.1714C31.4642 59.2686 35.0578 61.9028 38.9619 63.9976C35.6062 62.8515 32.0931 62.241 28.5498 62.188C23.7332 62.1854 18.9697 63.2013 14.5682 65.1701C10.1668 67.1388 6.22553 70.0164 3 73.6163C6.22861 77.2164 10.1729 80.0936 14.5773 82.0613C18.9817 84.0291 23.7478 85.0435 28.5667 85.0388C33.7203 84.4811 38.7847 83.2787 43.6426 81.4594C43.6426 81.4594 39.1473 85.8474 37.0514 87.9623C34.8271 90.168 33.0954 92.8253 31.9715 95.7573C30.8476 98.6892 30.3573 101.829 30.5333 104.966" stroke="#0BB257" stroke-width="5.44" stroke-linecap="round" stroke-linejoin="round"/>
<path d="M62.5 83.2773C67.8395 83.2773 72.168 78.9488 72.168 73.6094C72.168 68.2699 67.8395 63.9414 62.5 63.9414C57.1605 63.9414 52.832 68.2699 52.832 73.6094C52.832 78.9488 57.1605 83.2773 62.5 83.2773Z" stroke="#C900A5" stroke-width="3.4375" stroke-linecap="round" stroke-linejoin="round"/>
<path d="M62.5 84.2773V106.997" stroke="#C900A5" stroke-width="3.4375" stroke-linecap="round" stroke-linejoin="round"/>
<path d="M68.9453 102.279C78.2652 103.269 85.0586 106.361 85.0586 110.013C85.0586 114.462 74.9609 118.07 62.5 118.07C50.0391 118.07 39.9414 114.452 39.9414 110.002C39.9414 106.35 46.7068 103.284 55.9924 102.285" stroke="#C900A5" stroke-width="3.4375" stroke-linecap="round" stroke-linejoin="round"/>
<path d="M61.6943 71.998C61.2494 71.998 60.8887 71.6373 60.8887 71.1924C60.8887 70.7474 61.2494 70.3867 61.6943 70.3867" stroke="#C900A5" stroke-width="3.4375"/>
<path d="M61.6943 71.998C62.1393 71.998 62.5 71.6373 62.5 71.1924C62.5 70.7474 62.1393 70.3867 61.6943 70.3867" stroke="#C900A5" stroke-width="3.4375"/>
</svg>
