<svg width="100" height="112" viewBox="0 0 100 112" fill="none" xmlns="http://www.w3.org/2000/svg">
<path d="M42.2474 70.7273V102H36.5365L22.931 82.3171H22.702V102H16.0901V70.7273H21.8927L35.3912 90.3949H35.6661V70.7273H42.2474ZM76.4482 86.3636C76.4482 89.7739 75.8017 92.6752 74.5089 95.0675C73.2262 97.4598 71.4753 99.2871 69.256 100.549C67.047 101.801 64.5631 102.428 61.8043 102.428C59.0252 102.428 56.5311 101.796 54.3221 100.534C52.113 99.2718 50.3672 97.4445 49.0845 95.0522C47.8018 92.6599 47.1605 89.7637 47.1605 86.3636C47.1605 82.9534 47.8018 80.0521 49.0845 77.6598C50.3672 75.2675 52.113 73.4453 54.3221 72.1932C56.5311 70.9309 59.0252 70.2997 61.8043 70.2997C64.5631 70.2997 67.047 70.9309 69.256 72.1932C71.4753 73.4453 73.2262 75.2675 74.5089 77.6598C75.8017 80.0521 76.4482 82.9534 76.4482 86.3636ZM69.7447 86.3636C69.7447 84.1546 69.4138 82.2917 68.7521 80.7749C68.1006 79.258 67.1793 78.1077 65.9883 77.3239C64.7972 76.54 63.4026 76.1481 61.8043 76.1481C60.2061 76.1481 58.8114 76.54 57.6204 77.3239C56.4293 78.1077 55.503 79.258 54.8413 80.7749C54.1897 82.2917 53.864 84.1546 53.864 86.3636C53.864 88.5727 54.1897 90.4356 54.8413 91.9524C55.503 93.4692 56.4293 94.6196 57.6204 95.4034C58.8114 96.1873 60.2061 96.5792 61.8043 96.5792C63.4026 96.5792 64.7972 96.1873 65.9883 95.4034C67.1793 94.6196 68.1006 93.4692 68.7521 91.9524C69.4138 90.4356 69.7447 88.5727 69.7447 86.3636Z" fill="#FF0000"/>
<path d="M43.5369 3C39.8981 6.1853 37.4478 10.5109 36.5866 15.2696C35.7254 20.0282 36.5042 24.9382 38.7958 29.1968C37.2728 27.1346 35.6351 25.1596 33.8904 23.2813C29.5452 18.8575 23.6997 16.2228 17.5074 15.897C17.8426 22.0564 20.5002 27.8597 24.9444 32.1374C26.6976 33.8335 28.6793 35.2758 30.832 36.423C28.9842 35.7974 27.05 35.4637 25.0993 35.4346C22.4414 35.4311 19.8125 35.987 17.3834 37.0661C14.9544 38.1449 12.7795 39.7228 11 41.6972C12.7808 43.6694 14.9561 45.2454 17.3849 46.3232C19.8138 47.4011 22.442 47.9566 25.0993 47.9534C27.9416 47.6489 30.7346 46.99 33.4132 45.992C33.4132 45.992 30.9342 48.3965 29.7784 49.5555C28.5509 50.7654 27.5954 52.2233 26.9755 53.8316C26.3557 55.44 26.0858 57.1618 26.1839 58.8827C30.7676 59.4737 35.4104 58.3886 39.2575 55.8276" stroke="#C900A5" stroke-width="5.07068" stroke-linecap="round" stroke-linejoin="round"/>
<path d="M43.5371 3C47.1756 6.1853 49.626 10.5109 50.4871 15.2696C51.3485 20.0282 50.5695 24.9382 48.2782 29.1968C49.801 27.1346 51.4388 25.1596 53.1834 23.2813C57.5287 18.8575 63.3742 16.2228 69.5665 15.897C69.3823 19.2808 68.4972 22.5573 67 25.5323" stroke="#C900A5" stroke-width="5.07068" stroke-linecap="round" stroke-linejoin="round"/>
<path d="M60.5 62C68.5081 62 75 55.5081 75 47.5C75 39.4919 68.5081 33 60.5 33C52.4919 33 46 39.4919 46 47.5C46 55.5081 52.4919 62 60.5 62Z" stroke="#FF0000" stroke-width="3.86667" stroke-miterlimit="10" stroke-linecap="round" stroke-linejoin="round"/>
<path d="M66.0581 42.1831L55.1831 53.0581" stroke="#FF0000" stroke-width="3.86667" stroke-miterlimit="10" stroke-linecap="round" stroke-linejoin="round"/>
<path d="M55.1831 42.1831L66.0581 53.0581" stroke="#FF0000" stroke-width="3.86667" stroke-miterlimit="10" stroke-linecap="round" stroke-linejoin="round"/>
</svg>
