<svg width="32" height="32" viewBox="0 0 32 32" fill="none" xmlns="http://www.w3.org/2000/svg">
<path d="M2.875 9.4375C2.875 10.4321 3.27009 11.3859 3.97335 12.0892C4.67661 12.7924 5.63044 13.1875 6.625 13.1875C7.61956 13.1875 8.57339 12.7924 9.27665 12.0892C9.97991 11.3859 10.375 10.4321 10.375 9.4375C10.375 8.44294 9.97991 7.48911 9.27665 6.78585C8.57339 6.08259 7.61956 5.6875 6.625 5.6875C5.63044 5.6875 4.67661 6.08259 3.97335 6.78585C3.27009 7.48911 2.875 8.44294 2.875 9.4375Z" stroke="white" stroke-width="2" stroke-linecap="round" stroke-linejoin="round"/>
<path d="M21.8987 14.3012C20.5237 15.9187 15.6212 17.11 14.9199 15.9512C15.3662 14.5075 16.2184 13.2226 17.3749 12.25C13.5287 10.2 13.2299 8.37499 13.1899 7.65999C14.1986 7.32519 15.2698 7.22191 16.3239 7.35781C17.378 7.49371 18.3879 7.8653 19.2787 8.44499C19.2168 7.24709 19.4251 6.0506 19.8881 4.94408C20.3512 3.83755 21.0571 2.84931 21.9537 2.05249C22.8499 2.84994 23.5554 3.83874 24.0178 4.94571C24.4802 6.05268 24.6877 7.24947 24.6249 8.44749C25.4315 7.85411 26.3735 7.47153 27.3654 7.33444C28.3572 7.19736 29.3677 7.31012 30.3049 7.66249C30.2649 8.38374 29.9662 10.2025 26.1199 12.2525C27.276 13.2245 28.1282 14.5084 28.5749 15.9512C27.8737 17.11 23.2624 15.9187 21.8937 14.3012" stroke="white" stroke-width="2" stroke-linecap="round" stroke-linejoin="round"/>
<path d="M21.8987 14.3013V18.7013" stroke="white" stroke-width="2" stroke-linecap="round" stroke-linejoin="round"/>
<path d="M11.3125 22.5625V19.75C11.3125 18.5068 10.8186 17.3145 9.93956 16.4354C9.06049 15.5564 7.8682 15.0625 6.625 15.0625C5.3818 15.0625 4.18951 15.5564 3.31044 16.4354C2.43136 17.3145 1.9375 18.5068 1.9375 19.75V22.5625H3.8125L4.75 30.0625H8.5L9.4375 22.5625H11.3125Z" stroke="white" stroke-width="2" stroke-linecap="round" stroke-linejoin="round"/>
</svg>
